<?xml version="1.0" encoding="UTF-8"?>
<svg id="Layer_1" data-name="Layer 1" xmlns="http://www.w3.org/2000/svg" version="1.1" viewBox="0 0 55 55">
  <defs>
    <style>
      .cls-1 {
        fill: #f5cb5c;
        stroke-width: 0px;
      }
    </style>
  </defs>
  <polygon class="cls-1" points="54.9 27.5 51.6 30.2 54.2 33.6 50.4 35.5 52.2 39.4 48.1 40.4 48.9 44.6 44.7 44.7 44.6 48.9 40.4 48.1 39.4 52.2 35.5 50.4 33.6 54.2 30.2 51.6 27.5 54.9 24.8 51.6 21.4 54.2 19.5 50.4 15.6 52.2 14.6 48.1 10.4 48.9 10.3 44.7 6.1 44.6 6.9 40.4 2.8 39.4 4.6 35.5 .8 33.6 3.4 30.2 .1 27.5 3.4 24.8 .8 21.4 4.6 19.5 2.8 15.6 6.9 14.6 6.1 10.4 10.3 10.3 10.4 6.1 14.6 6.9 15.6 2.8 19.5 4.6 21.4 .8 24.8 3.4 27.5 .1 30.2 3.4 33.6 .8 35.5 4.6 39.4 2.8 40.4 6.9 44.6 6.1 44.7 10.3 48.9 10.4 48.1 14.6 52.2 15.6 50.4 19.5 54.2 21.4 51.6 24.8 54.9 27.5"/>
</svg>